<svg width="20.000000" height="20.000000" viewBox="0 0 20 20" fill="none" xmlns="http://www.w3.org/2000/svg" xmlns:xlink="http://www.w3.org/1999/xlink">
	<desc>
			Created with Pixso.
	</desc>
	<defs/>
	<path id="Vector" d="M20 3.86L15.39 0L14.1 1.48L18.7 5.34L20 3.86ZM5.89 1.58L4.6 0.09L0 3.86L1.3 5.34L5.89 1.58ZM10.5 6.13L9 6.13L9 12.07L13.7 14.95L14.5 13.76L10.5 11.38L10.5 6.13ZM10 2.17C5 2.17 1 6.13 1 11.08C1 16.03 5 20 10 20C15 20 19 16.03 19 11.08C19 6.13 15 2.17 10 2.17ZM10 18.01C6.1 18.01 3 14.95 3 11.08C3 7.22 6.1 4.15 10 4.15C13.89 4.15 17 7.22 17 11.08C17 14.95 13.89 18.01 10 18.01Z" fill="#EEEEEE" fill-opacity="1.000000" fill-rule="nonzero"/>
</svg>
