<svg width="20.000000" height="20.000000" viewBox="0 0 20 20" fill="none" xmlns="http://www.w3.org/2000/svg" xmlns:xlink="http://www.w3.org/1999/xlink">
	<desc>
			Created with Pixso.
	</desc>
	<defs/>
	<path id="Vector" d="M17.65 10.97C17.68 10.66 17.71 10.33 17.71 10C17.71 9.66 17.68 9.33 17.63 9.02L19.81 7.37C20 7.22 20.05 6.95 19.93 6.73L17.88 3.27C17.75 3.04 17.48 2.97 17.25 3.04L14.69 4.04C14.15 3.64 13.58 3.32 12.95 3.07L12.57 0.42C12.53 0.17 12.31 0 12.05 0L7.94 0C7.68 0 7.47 0.17 7.44 0.42L7.05 3.07C6.42 3.32 5.84 3.66 5.31 4.04L2.76 3.04C2.52 2.96 2.25 3.04 2.13 3.27L0.07 6.73C-0.06 6.96 -0.01 7.22 0.2 7.37L2.37 9.02C2.32 9.33 2.28 9.67 2.28 10C2.28 10.32 2.31 10.66 2.36 10.97L0.18 12.62C-0.01 12.77 -0.06 13.05 0.06 13.26L2.11 16.72C2.24 16.95 2.51 17.02 2.74 16.95L5.3 15.95C5.84 16.35 6.41 16.67 7.04 16.92L7.42 19.57C7.47 19.82 7.68 20 7.94 20L12.05 20C12.31 20 12.53 19.82 12.55 19.57L12.94 16.92C13.57 16.67 14.15 16.33 14.68 15.95L17.23 16.95C17.47 17.03 17.74 16.95 17.86 16.72L19.92 13.26C20.05 13.03 20 12.77 19.79 12.62L17.65 10.97ZM10 13.75C7.87 13.75 6.14 12.06 6.14 10C6.14 7.93 7.87 6.25 10 6.25C12.12 6.25 13.85 7.93 13.85 10C13.85 12.06 12.12 13.75 10 13.75Z" fill="#4D5B7B" fill-opacity="1.000000" fill-rule="nonzero"/>
</svg>
